<svg xmlns="http://www.w3.org/2000/svg" xmlns:xlink="http://www.w3.org/1999/xlink" width="300" zoomAndPan="magnify" viewBox="0 0 224.87999 225" height="300" preserveAspectRatio="xMidYMid meet" version="1.0"><defs><clipPath id="a7c9f8945f"><path d="M 173 160 L 204.597656 160 L 204.597656 192 L 173 192 Z M 173 160 " clip-rule="nonzero"/></clipPath><clipPath id="573bc54fc0"><path d="M 151 32.015625 L 162 32.015625 L 162 42 L 151 42 Z M 151 32.015625 " clip-rule="nonzero"/></clipPath><clipPath id="30600a0574"><path d="M 20.195312 45 L 55 45 L 55 127 L 20.195312 127 Z M 20.195312 45 " clip-rule="nonzero"/></clipPath></defs><g clip-path="url(#a7c9f8945f)"><path fill="#0f5784" d="M 204.167969 171.980469 C 203.714844 170.277344 202.203125 169.160156 200.53125 169.105469 C 200.527344 169.097656 200.523438 169.09375 200.519531 169.085938 C 200.015625 168.242188 199.414062 167.453125 198.71875 166.734375 C 198.714844 166.730469 198.710938 166.730469 198.707031 166.726562 C 199.097656 165.09375 198.414062 163.332031 196.890625 162.449219 C 195.367188 161.5625 193.507812 161.84375 192.285156 162.992188 C 192.277344 162.992188 192.273438 162.988281 192.265625 162.988281 C 191.296875 162.742188 190.316406 162.609375 189.335938 162.589844 C 189.328125 162.589844 189.324219 162.589844 189.316406 162.589844 C 188.4375 161.164062 186.71875 160.40625 185.015625 160.859375 C 183.316406 161.3125 182.195312 162.832031 182.144531 164.507812 C 182.140625 164.511719 182.132812 164.515625 182.128906 164.519531 C 181.285156 165.023438 180.503906 165.621094 179.785156 166.316406 C 179.78125 166.320312 179.777344 166.324219 179.773438 166.328125 C 178.140625 165.9375 176.382812 166.621094 175.5 168.148438 C 174.617188 169.675781 174.898438 171.542969 176.046875 172.765625 C 176.046875 172.769531 176.042969 172.777344 176.042969 172.78125 C 175.796875 173.75 175.667969 174.730469 175.648438 175.710938 C 175.648438 175.71875 175.648438 175.726562 175.648438 175.730469 C 174.222656 176.609375 173.460938 178.335938 173.914062 180.042969 C 174.367188 181.742188 175.878906 182.863281 177.550781 182.917969 C 177.554688 182.925781 177.554688 182.929688 177.558594 182.933594 C 178.0625 183.777344 178.664062 184.566406 179.359375 185.285156 C 179.363281 185.289062 179.367188 185.292969 179.375 185.300781 C 178.984375 186.929688 179.667969 188.691406 181.191406 189.574219 C 182.714844 190.460938 184.574219 190.179688 185.796875 189.03125 C 185.800781 189.03125 185.808594 189.03125 185.8125 189.035156 C 186.78125 189.277344 187.761719 189.410156 188.742188 189.429688 C 188.75 189.429688 188.757812 189.429688 188.765625 189.429688 C 189.640625 190.855469 191.363281 191.617188 193.0625 191.164062 C 194.765625 190.710938 195.882812 189.195312 195.9375 187.519531 C 195.941406 187.515625 195.949219 187.511719 195.953125 187.511719 C 196.792969 187.003906 197.582031 186.402344 198.296875 185.707031 C 198.304688 185.703125 198.304688 185.699219 198.3125 185.695312 C 199.941406 186.085938 201.699219 185.402344 202.582031 183.875 C 203.464844 182.347656 203.183594 180.484375 202.035156 179.257812 C 202.039062 179.253906 202.039062 179.25 202.042969 179.242188 C 202.285156 178.273438 202.417969 177.289062 202.4375 176.308594 C 202.4375 176.300781 202.4375 176.296875 202.4375 176.289062 C 203.863281 175.410156 204.621094 173.683594 204.167969 171.980469 Z M 185.203125 173.78125 C 186.429688 171.660156 189.148438 170.9375 191.265625 172.167969 C 193.382812 173.398438 194.105469 176.117188 192.875 178.238281 C 191.648438 180.363281 188.933594 181.085938 186.816406 179.855469 C 184.699219 178.625 183.972656 175.90625 185.203125 173.78125 Z M 185.203125 173.78125 " fill-opacity="1" fill-rule="nonzero"/></g><path fill="#0f5784" d="M 60.558594 177.335938 C 60.265625 176.234375 59.285156 175.507812 58.203125 175.472656 C 58.199219 175.46875 58.199219 175.464844 58.195312 175.460938 C 57.871094 174.914062 57.480469 174.402344 57.03125 173.9375 C 57.027344 173.933594 57.023438 173.933594 57.023438 173.929688 C 57.273438 172.871094 56.832031 171.730469 55.84375 171.160156 C 54.855469 170.585938 53.648438 170.765625 52.859375 171.511719 C 52.855469 171.511719 52.851562 171.507812 52.847656 171.507812 C 52.21875 171.347656 51.582031 171.261719 50.945312 171.25 C 50.941406 171.25 50.9375 171.25 50.933594 171.25 C 50.367188 170.328125 49.25 169.835938 48.148438 170.128906 C 47.042969 170.421875 46.320312 171.40625 46.285156 172.496094 C 46.28125 172.496094 46.277344 172.496094 46.273438 172.5 C 45.730469 172.828125 45.222656 173.214844 44.757812 173.664062 C 44.753906 173.667969 44.75 173.671875 44.75 173.675781 C 43.691406 173.417969 42.550781 173.863281 41.980469 174.851562 C 41.40625 175.84375 41.589844 177.054688 42.332031 177.847656 C 42.332031 177.847656 42.332031 177.851562 42.328125 177.855469 C 42.171875 178.484375 42.085938 179.121094 42.074219 179.757812 C 42.074219 179.761719 42.074219 179.765625 42.074219 179.769531 C 41.148438 180.335938 40.65625 181.457031 40.949219 182.5625 C 41.242188 183.667969 42.222656 184.390625 43.308594 184.425781 C 43.308594 184.429688 43.3125 184.433594 43.3125 184.4375 C 43.640625 184.984375 44.03125 185.496094 44.480469 185.960938 C 44.484375 185.964844 44.488281 185.96875 44.488281 185.96875 C 44.238281 187.027344 44.679688 188.167969 45.667969 188.742188 C 46.65625 189.316406 47.863281 189.132812 48.652344 188.386719 C 48.65625 188.390625 48.660156 188.390625 48.664062 188.390625 C 49.289062 188.550781 49.925781 188.636719 50.5625 188.648438 C 50.566406 188.648438 50.570312 188.648438 50.578125 188.648438 C 51.144531 189.574219 52.261719 190.066406 53.363281 189.769531 C 54.464844 189.476562 55.191406 188.496094 55.226562 187.410156 C 55.230469 187.40625 55.234375 187.40625 55.234375 187.402344 C 55.78125 187.078125 56.292969 186.683594 56.757812 186.234375 C 56.757812 186.234375 56.761719 186.230469 56.765625 186.226562 C 57.820312 186.480469 58.960938 186.039062 59.53125 185.046875 C 60.105469 184.058594 59.921875 182.847656 59.179688 182.054688 C 59.179688 182.050781 59.183594 182.046875 59.183594 182.042969 C 59.339844 181.417969 59.425781 180.777344 59.4375 180.140625 C 59.441406 180.136719 59.4375 180.132812 59.4375 180.128906 C 60.363281 179.558594 60.855469 178.441406 60.558594 177.335938 Z M 48.269531 178.503906 C 49.0625 177.128906 50.824219 176.660156 52.195312 177.457031 C 53.570312 178.257812 54.039062 180.019531 53.242188 181.394531 C 52.445312 182.769531 50.6875 183.238281 49.3125 182.441406 C 47.941406 181.644531 47.472656 179.882812 48.269531 178.503906 Z M 48.269531 178.503906 " fill-opacity="1" fill-rule="nonzero"/><path fill="#ffffff" d="M 171.675781 53.382812 C 170.941406 54.964844 169.0625 55.652344 167.476562 54.914062 C 165.894531 54.175781 165.210938 52.296875 165.949219 50.707031 C 166.691406 49.128906 168.566406 48.441406 170.144531 49.183594 C 171.722656 49.917969 172.410156 51.800781 171.675781 53.382812 Z M 171.675781 53.382812 " fill-opacity="1" fill-rule="nonzero"/><path fill="#2492dd" d="M 166.964844 55.667969 C 165.027344 54.683594 164.207031 52.320312 165.128906 50.324219 C 166.085938 48.289062 168.507812 47.414062 170.527344 48.367188 C 171.503906 48.824219 172.253906 49.636719 172.625 50.65625 C 172.996094 51.675781 172.949219 52.777344 172.492188 53.761719 C 172.035156 54.75 171.222656 55.496094 170.203125 55.867188 C 169.183594 56.238281 168.082031 56.191406 167.09375 55.730469 C 167.050781 55.710938 167.007812 55.691406 166.964844 55.667969 Z M 169.839844 50.042969 C 169.8125 50.027344 169.789062 50.015625 169.765625 50.003906 C 168.640625 49.472656 167.296875 49.960938 166.765625 51.089844 C 166.242188 52.21875 166.734375 53.585938 167.855469 54.09375 C 168.40625 54.347656 169.019531 54.375 169.585938 54.167969 C 170.152344 53.964844 170.601562 53.546875 170.855469 53.003906 C 171.109375 52.457031 171.136719 51.84375 170.929688 51.277344 C 170.734375 50.734375 170.347656 50.300781 169.839844 50.042969 Z M 169.839844 50.042969 " fill-opacity="1" fill-rule="nonzero"/><path fill="#2492dd" d="M 160.609375 63.824219 C 160.574219 63.804688 160.539062 63.785156 160.507812 63.761719 C 160.097656 63.480469 159.992188 62.917969 160.273438 62.507812 L 166.042969 54.082031 C 166.324219 53.667969 166.890625 53.5625 167.296875 53.847656 C 167.710938 54.128906 167.8125 54.691406 167.53125 55.105469 L 161.761719 63.527344 C 161.503906 63.90625 161.007812 64.027344 160.609375 63.824219 Z M 160.609375 63.824219 " fill-opacity="1" fill-rule="nonzero"/><path fill="#2492dd" d="M 178.207031 59.210938 C 178.050781 59.128906 177.914062 59 177.824219 58.832031 C 177.585938 58.394531 177.75 57.84375 178.191406 57.609375 C 179.34375 56.988281 180.105469 56.007812 180.335938 54.851562 C 180.53125 53.886719 180.320312 52.914062 179.777344 52.246094 C 179.464844 51.859375 179.523438 51.289062 179.910156 50.976562 C 180.296875 50.660156 180.863281 50.71875 181.179688 51.105469 C 182.054688 52.191406 182.402344 53.722656 182.105469 55.203125 C 181.769531 56.898438 180.679688 58.316406 179.046875 59.199219 C 178.777344 59.347656 178.464844 59.339844 178.207031 59.210938 Z M 178.207031 59.210938 " fill-opacity="1" fill-rule="nonzero"/><path fill="#2492dd" d="M 183.578125 62.585938 C 183.421875 62.503906 183.285156 62.378906 183.195312 62.207031 C 182.957031 61.769531 183.121094 61.222656 183.5625 60.984375 C 185.582031 59.898438 186.921875 58.175781 187.332031 56.128906 C 187.675781 54.40625 187.292969 52.652344 186.304688 51.4375 C 185.992188 51.050781 186.046875 50.480469 186.433594 50.167969 C 186.820312 49.851562 187.390625 49.90625 187.703125 50.296875 C 189.027344 51.921875 189.550781 54.238281 189.101562 56.484375 C 188.582031 59.070312 186.917969 61.230469 184.414062 62.578125 C 184.144531 62.722656 183.832031 62.714844 183.578125 62.585938 Z M 183.578125 62.585938 " fill-opacity="1" fill-rule="nonzero"/><path fill="#2492dd" d="M 157.359375 45.078125 C 157.054688 44.921875 156.851562 44.601562 156.867188 44.234375 C 156.945312 42.375 157.746094 40.773438 159.121094 39.730469 C 160.320312 38.816406 161.847656 38.460938 163.203125 38.78125 C 163.6875 38.894531 163.992188 39.378906 163.875 39.867188 C 163.761719 40.351562 163.277344 40.652344 162.792969 40.539062 C 161.953125 40.34375 160.988281 40.578125 160.210938 41.167969 C 159.273438 41.882812 158.726562 43 158.667969 44.3125 C 158.648438 44.808594 158.226562 45.195312 157.730469 45.175781 C 157.597656 45.171875 157.472656 45.136719 157.359375 45.078125 Z M 157.359375 45.078125 " fill-opacity="1" fill-rule="nonzero"/><g clip-path="url(#573bc54fc0)"><path fill="#2492dd" d="M 151.972656 41.714844 C 151.667969 41.558594 151.464844 41.234375 151.480469 40.871094 C 151.597656 38.027344 152.8125 35.585938 154.902344 33.992188 C 156.722656 32.605469 159.027344 32.058594 161.074219 32.53125 C 161.554688 32.648438 161.859375 33.128906 161.75 33.617188 C 161.636719 34.101562 161.152344 34.40625 160.664062 34.292969 C 159.140625 33.9375 157.390625 34.363281 155.996094 35.429688 C 154.339844 36.691406 153.378906 38.652344 153.285156 40.945312 C 153.261719 41.445312 152.84375 41.832031 152.34375 41.8125 C 152.210938 41.804688 152.085938 41.769531 151.972656 41.714844 Z M 151.972656 41.714844 " fill-opacity="1" fill-rule="nonzero"/></g><path fill="#2492dd" d="M 79.65625 177.132812 C 79.65625 177.132812 88.523438 181.574219 97.292969 185.414062 C 92.0625 187.121094 80.515625 190.203125 74 186.710938 C 67.824219 183.398438 63.734375 172.964844 61.90625 167.320312 C 70.367188 172.304688 79.65625 177.132812 79.65625 177.132812 Z M 79.65625 177.132812 " fill-opacity="1" fill-rule="nonzero"/><path fill="#1b72c1" d="M 85.3125 167.097656 C 96.484375 172.664062 113.230469 180.207031 125.8125 183.519531 L 125.730469 183.835938 C 125.730469 183.835938 118.554688 193.136719 108.726562 189.949219 C 105.570312 188.925781 101.4375 187.234375 97.292969 185.414062 C 88.523438 181.574219 79.65625 177.132812 79.65625 177.132812 C 79.65625 177.132812 70.367188 172.304688 61.90625 167.320312 C 58.246094 165.160156 54.742188 162.96875 52.214844 161.128906 C 43.859375 155.042969 47.144531 143.757812 47.144531 143.757812 L 47.425781 143.425781 C 57.566406 151.8125 73.960938 161.1875 85.191406 167.035156 C 85.226562 167.0625 85.273438 167.078125 85.3125 167.097656 Z M 85.3125 167.097656 " fill-opacity="1" fill-rule="nonzero"/><path fill="#2492dd" d="M 187.078125 101.890625 C 187.039062 98.960938 186.699219 96.089844 186.015625 93.367188 C 185.628906 91.78125 185.117188 90.253906 184.488281 88.785156 C 177.207031 71.859375 157.289062 60.375 145.925781 54.449219 C 144.554688 53.738281 139.546875 51.183594 138.132812 50.484375 C 126.644531 44.757812 105.710938 35.433594 87.808594 39.484375 C 65.664062 44.496094 46.304688 77.984375 62.371094 91.429688 C 62.378906 91.433594 62.378906 91.433594 62.378906 91.433594 C 62.710938 91.714844 63.054688 91.992188 63.421875 92.25 C 69.132812 96.351562 78.902344 102.324219 90.148438 108.617188 C 90.410156 108.761719 90.664062 108.902344 90.925781 109.046875 L 102.378906 115.269531 C 104.984375 116.640625 107.609375 118.007812 110.242188 119.339844 C 128.261719 128.480469 146.320312 136.277344 156.242188 139.582031 C 157.359375 139.953125 158.457031 140.199219 159.546875 140.328125 C 164.851562 140.984375 169.796875 138.902344 173.976562 135.121094 C 181.785156 126.988281 186.15625 113.304688 187.078125 101.890625 Z M 187.078125 101.890625 " fill-opacity="1" fill-rule="nonzero"/><path fill="#2492dd" d="M 162.972656 151.636719 C 164.398438 144.027344 159.472656 140.949219 159.472656 140.949219 L 159.546875 140.328125 C 158.457031 140.199219 157.359375 139.953125 156.242188 139.582031 C 146.320312 136.277344 128.261719 128.480469 110.242188 119.339844 C 107.609375 118.007812 104.984375 116.640625 102.378906 115.269531 L 90.925781 109.046875 C 90.664062 108.902344 90.410156 108.761719 90.148438 108.617188 C 78.902344 102.324219 69.132812 96.351562 63.421875 92.25 C 63.054688 91.992188 62.710938 91.714844 62.378906 91.433594 C 62.378906 91.433594 62.378906 91.433594 62.371094 91.429688 C 62.121094 91.34375 57.097656 89.628906 51.75 94.835938 C 46.960938 99.507812 43.019531 106.878906 41.183594 111.445312 C 38.925781 117.074219 35.605469 129.234375 39.890625 135.679688 C 41.472656 138.046875 44.121094 140.683594 47.425781 143.425781 C 57.566406 151.8125 73.960938 161.1875 85.191406 167.035156 C 85.230469 167.0625 85.273438 167.074219 85.3125 167.097656 C 96.484375 172.660156 113.230469 180.207031 125.8125 183.519531 C 130.167969 184.667969 134.035156 185.308594 136.988281 185.191406 C 142.335938 184.96875 147.078125 181.496094 151.015625 176.773438 C 152.769531 174.675781 154.433594 172.363281 155.78125 169.902344 C 158.683594 164.621094 161.933594 157.175781 162.972656 151.636719 Z M 162.972656 151.636719 " fill-opacity="1" fill-rule="nonzero"/><path fill="#70caf2" d="M 46.734375 137.234375 C 46.253906 135.601562 46.082031 133.761719 46.117188 131.839844 C 46.042969 129.046875 46.4375 126.332031 47.234375 123.757812 C 47.96875 120.664062 48.9375 117.824219 49.761719 115.816406 C 51.625 111.265625 55.550781 103.890625 60.199219 99.148438 C 63.121094 96.164062 65.882812 95.351562 67.773438 95.222656 C 66.148438 94.15625 64.679688 93.15625 63.421875 92.25 C 63.054688 91.992188 62.710938 91.714844 62.378906 91.433594 C 62.378906 91.433594 62.378906 91.433594 62.371094 91.429688 C 62.121094 91.34375 57.097656 89.628906 51.75 94.839844 C 46.957031 99.507812 43.019531 106.878906 41.183594 111.445312 C 38.925781 117.074219 35.605469 129.234375 39.890625 135.679688 C 41.472656 138.046875 44.121094 140.683594 47.425781 143.425781 C 48.035156 143.929688 48.675781 144.4375 49.328125 144.949219 C 48.152344 142.535156 47.277344 139.941406 46.734375 137.234375 Z M 46.734375 137.234375 " fill-opacity="1" fill-rule="nonzero"/><path fill="#70caf2" d="M 104.683594 116.074219 C 104.417969 115.929688 104.160156 115.789062 103.894531 115.644531 C 92.449219 109.265625 82.496094 103.230469 76.667969 99.109375 C 76.292969 98.847656 75.941406 98.570312 75.601562 98.289062 C 75.601562 98.289062 75.601562 98.289062 75.59375 98.285156 C 68.464844 92.445312 67.980469 83.046875 71.515625 73.90625 C 76.835938 62.507812 83.894531 56.328125 88.882812 52.71875 C 92.304688 50.246094 96.257812 48.746094 100.195312 47.953125 C 118.140625 44.335938 139.398438 53.871094 151.070312 59.695312 C 152.511719 60.410156 157.601562 63.007812 158.996094 63.726562 C 161.867188 65.222656 165.273438 67.0625 168.894531 69.242188 C 161 62.644531 152.171875 57.707031 145.925781 54.449219 C 144.554688 53.738281 139.546875 51.183594 138.132812 50.484375 C 126.644531 44.757812 105.710938 35.433594 87.808594 39.484375 C 65.664062 44.5 46.304688 77.988281 62.371094 91.433594 C 62.378906 91.4375 62.378906 91.4375 62.378906 91.4375 C 62.710938 91.71875 63.054688 91.996094 63.421875 92.253906 C 69.132812 96.351562 78.902344 102.328125 90.148438 108.621094 C 90.410156 108.761719 90.664062 108.902344 90.925781 109.046875 L 102.378906 115.273438 C 104.984375 116.640625 107.609375 118.011719 110.242188 119.34375 C 112.210938 120.34375 114.183594 121.324219 116.144531 122.289062 Z M 104.683594 116.074219 " fill-opacity="1" fill-rule="nonzero"/><path fill="#1b72c1" d="M 161.261719 136.957031 C 160.179688 136.808594 159.089844 136.550781 157.972656 136.171875 C 148.089844 132.792969 130.066406 124.933594 112.046875 115.792969 C 109.414062 114.460938 106.785156 113.09375 104.179688 111.726562 L 92.71875 105.515625 C 92.457031 105.375 92.203125 105.234375 91.941406 105.089844 C 80.683594 98.820312 70.894531 92.890625 65.15625 88.839844 C 64.789062 88.585938 64.441406 88.3125 64.105469 88.035156 C 64.105469 88.035156 64.105469 88.035156 64.097656 88.03125 C 63.617188 87.640625 63.167969 87.230469 62.75 86.808594 C 60.257812 84.585938 58.148438 81.9375 56.5 78.984375 C 56.730469 83.835938 58.523438 88.210938 62.371094 91.433594 C 62.378906 91.4375 62.378906 91.4375 62.378906 91.4375 C 62.710938 91.71875 63.054688 91.996094 63.421875 92.253906 C 69.132812 96.351562 78.902344 102.328125 90.148438 108.621094 C 90.410156 108.761719 90.664062 108.902344 90.925781 109.046875 L 102.378906 115.273438 C 104.984375 116.640625 107.609375 118.011719 110.242188 119.34375 C 128.261719 128.480469 146.316406 136.28125 156.238281 139.585938 C 157.359375 139.953125 158.457031 140.199219 159.546875 140.328125 C 164.855469 140.980469 169.785156 138.898438 173.964844 135.117188 C 170.785156 136.4375 165.34375 137.53125 161.261719 136.957031 Z M 161.261719 136.957031 " fill-opacity="1" fill-rule="nonzero"/><path fill="#2492dd" d="M 147.59375 159.222656 C 149.445312 161.007812 151.023438 162.984375 152.390625 165.003906 C 157.28125 172.257812 159.40625 180.171875 161.429688 182.53125 C 161.5 182.613281 161.578125 182.6875 161.648438 182.757812 C 161.691406 182.804688 161.738281 182.847656 161.792969 182.882812 C 161.847656 182.933594 161.894531 182.976562 161.949219 183.011719 C 161.957031 183.003906 161.964844 183.011719 161.96875 183.007812 C 162.050781 183.058594 162.128906 183.09375 162.210938 183.121094 C 165.117188 184.136719 168.691406 181.1875 168.757812 167.402344 C 168.773438 164.570312 168.550781 161.957031 168.1875 159.597656 C 167.292969 153.746094 161.074219 150.214844 155.722656 152.722656 C 153.066406 153.964844 150.214844 155.980469 147.59375 159.222656 Z M 147.59375 159.222656 " fill-opacity="1" fill-rule="nonzero"/><path fill="#1b72c1" d="M 147.714844 159.113281 L 147.59375 159.222656 C 149.445312 161.007812 151.023438 162.984375 152.390625 165.003906 C 157.28125 172.257812 159.40625 180.171875 161.429688 182.53125 C 161.5 182.613281 161.578125 182.6875 161.648438 182.757812 C 161.691406 182.804688 161.738281 182.847656 161.792969 182.882812 C 161.847656 182.933594 161.894531 182.976562 161.949219 183.011719 C 161.957031 183.003906 161.964844 183.011719 161.96875 183.007812 C 164.601562 182.386719 164.253906 173.605469 161.4375 167.160156 C 159.128906 161.882812 152.414062 155.066406 147.714844 159.113281 Z M 147.714844 159.113281 " fill-opacity="1" fill-rule="nonzero"/><path fill="#ffffff" d="M 107.511719 43.300781 C 107.511719 43.300781 88.835938 43.695312 78.1875 53.65625 C 78.1875 53.65625 85.792969 36.179688 107.511719 43.300781 Z M 107.511719 43.300781 " fill-opacity="1" fill-rule="nonzero"/><path fill="#70caf2" d="M 125.019531 180.601562 C 125.019531 180.601562 134.691406 184.554688 141.121094 181.316406 C 147.546875 178.074219 150.386719 173.117188 150.386719 173.117188 C 150.386719 173.117188 144.824219 177.242188 138.949219 178.886719 C 132.675781 180.640625 125.019531 180.601562 125.019531 180.601562 Z M 125.019531 180.601562 " fill-opacity="1" fill-rule="nonzero"/><path fill="#ffffff" d="M 45.882812 138.882812 C 45.882812 138.882812 41.015625 136.371094 40.355469 132.054688 C 39.710938 127.808594 41.757812 125.652344 41.757812 125.652344 C 41.757812 125.652344 41.492188 128.746094 42.738281 132.398438 C 43.84375 135.628906 45.882812 138.882812 45.882812 138.882812 Z M 45.882812 138.882812 " fill-opacity="1" fill-rule="nonzero"/><path fill="#2492dd" d="M 105.222656 186.433594 C 105.222656 186.433594 110.644531 189.855469 115.160156 188.523438 C 119.605469 187.210938 120.382812 184.320312 120.382812 184.320312 C 120.382812 184.320312 117.605469 185.964844 113.351562 186.449219 C 109.59375 186.875 105.222656 186.433594 105.222656 186.433594 Z M 105.222656 186.433594 " fill-opacity="1" fill-rule="nonzero"/><path fill="#2492dd" d="M 56.238281 161.238281 C 56.238281 161.238281 50.421875 158.933594 48.917969 154.527344 C 47.433594 150.195312 49.296875 147.855469 49.296875 147.855469 C 49.296875 147.855469 49.566406 151.058594 51.601562 154.742188 C 53.398438 158.003906 56.238281 161.238281 56.238281 161.238281 Z M 56.238281 161.238281 " fill-opacity="1" fill-rule="nonzero"/><path fill="#70caf2" d="M 84.386719 186.171875 C 84.386719 186.171875 78.226562 187.382812 73.710938 184.203125 C 69.269531 181.074219 68.882812 177.867188 68.882812 177.867188 C 68.882812 177.867188 71.539062 180.648438 75.902344 182.867188 C 79.761719 184.828125 84.386719 186.171875 84.386719 186.171875 Z M 84.386719 186.171875 " fill-opacity="1" fill-rule="nonzero"/><path fill="#ffffff" d="M 110.257812 134.332031 C 116.125 137.324219 118.460938 144.519531 115.472656 150.398438 C 112.484375 156.277344 105.304688 158.617188 99.433594 155.625 C 93.558594 152.628906 91.222656 145.433594 94.207031 139.554688 C 97.195312 133.675781 104.378906 131.335938 110.257812 134.332031 Z M 110.257812 134.332031 " fill-opacity="1" fill-rule="nonzero"/><path fill="#62a5d3" d="M 100.242188 151.625 C 100.082031 151.542969 99.945312 151.417969 99.855469 151.246094 C 99.621094 150.808594 99.785156 150.261719 100.222656 150.023438 L 106.746094 146.511719 L 100.105469 144.875 C 99.738281 144.785156 99.46875 144.476562 99.425781 144.097656 C 99.382812 143.722656 99.578125 143.359375 99.917969 143.191406 L 109.117188 138.574219 C 109.5625 138.351562 110.105469 138.53125 110.328125 138.976562 C 110.550781 139.421875 110.371094 139.964844 109.925781 140.191406 L 102.917969 143.707031 L 109.453125 145.316406 C 109.816406 145.40625 110.085938 145.710938 110.132812 146.082031 C 110.179688 146.453125 109.996094 146.8125 109.664062 146.992188 L 101.078125 151.617188 C 100.808594 151.761719 100.496094 151.753906 100.242188 151.625 Z M 100.242188 151.625 " fill-opacity="1" fill-rule="nonzero"/><path fill="#ecffff" d="M 175.945312 98.078125 C 179.734375 104.824219 175.992188 114.097656 172.222656 120.636719 C 169.46875 125.421875 163.207031 127.359375 157.375 125.203125 C 136.460938 117.476562 119.351562 108.902344 106.03125 101.109375 C 90.3125 92.167969 78.644531 82.703125 76.925781 81.308594 C 72.886719 78.050781 71.269531 72.960938 72.953125 68.652344 C 75.699219 61.621094 80.757812 54.152344 87.882812 52.925781 C 91.007812 52.390625 97.5 52.660156 104.914062 53.292969 C 128.351562 55.265625 150.710938 66.757812 165.921875 84.695312 C 170.300781 89.867188 174.0625 94.714844 175.945312 98.078125 Z M 175.945312 98.078125 " fill-opacity="1" fill-rule="nonzero"/><path fill="#1b72c1" d="M 176.054688 97.96875 C 174.171875 94.597656 170.40625 89.734375 166.027344 84.550781 C 150.808594 66.570312 128.421875 55.0625 104.945312 53.109375 C 97.519531 52.484375 91.015625 52.21875 87.882812 52.761719 C 80.746094 54 75.667969 61.5 72.910156 68.5625 C 71.726562 71.582031 72.164062 74.980469 73.90625 77.867188 C 73.203125 75.796875 73.183594 73.609375 73.953125 71.617188 C 76.457031 65.125 81.15625 58.265625 87.902344 57.230469 C 90.863281 56.777344 97.035156 57.125 104.085938 57.820312 C 126.371094 59.992188 147.773438 70.992188 162.480469 87.867188 C 166.714844 92.734375 170.359375 97.289062 172.195312 100.441406 C 175.890625 106.761719 172.472656 115.316406 168.988281 121.335938 C 167.488281 123.925781 164.816406 125.574219 161.738281 126.074219 C 166.125 126.238281 170.210938 124.238281 172.296875 120.613281 C 176.082031 114.046875 179.839844 104.738281 176.054688 97.96875 Z M 176.054688 97.96875 " fill-opacity="1" fill-rule="nonzero"/><path fill="#256199" d="M 129.867188 103.6875 C 129.84375 103.6875 129.820312 103.6875 129.796875 103.6875 C 129.050781 103.648438 128.476562 103.007812 128.515625 102.261719 C 128.664062 99.429688 126.449219 97.402344 124.503906 96.527344 C 122.503906 95.628906 119.640625 95.386719 117.605469 97.398438 C 117.074219 97.925781 116.214844 97.917969 115.691406 97.386719 C 115.167969 96.851562 115.171875 95.992188 115.703125 95.46875 C 118.222656 92.980469 122.023438 92.4375 125.613281 94.054688 C 129.199219 95.667969 131.402344 98.945312 131.21875 102.402344 C 131.183594 103.128906 130.582031 103.6875 129.867188 103.6875 Z M 129.867188 103.6875 " fill-opacity="1" fill-rule="nonzero"/><path fill="#256199" d="M 90.984375 78.277344 C 90.441406 78.277344 89.929688 77.945312 89.722656 77.410156 C 89.453125 76.710938 89.804688 75.925781 90.5 75.65625 L 102.890625 70.894531 C 103.589844 70.628906 104.371094 70.976562 104.640625 71.675781 C 104.90625 72.375 104.558594 73.15625 103.859375 73.425781 L 91.46875 78.1875 C 91.308594 78.25 91.144531 78.277344 90.984375 78.277344 Z M 90.984375 78.277344 " fill-opacity="1" fill-rule="nonzero"/><path fill="#256199" d="M 99.554688 82.101562 C 99.011719 82.101562 98.5 81.769531 98.292969 81.234375 L 93.539062 68.820312 C 93.273438 68.121094 93.621094 67.339844 94.320312 67.070312 C 95.015625 66.804688 95.800781 67.152344 96.066406 67.851562 L 100.820312 80.261719 C 101.089844 80.960938 100.742188 81.742188 100.042969 82.011719 C 99.882812 82.074219 99.71875 82.101562 99.554688 82.101562 Z M 99.554688 82.101562 " fill-opacity="1" fill-rule="nonzero"/><path fill="#256199" d="M 148.550781 103.957031 C 148.007812 103.957031 147.496094 103.625 147.289062 103.089844 C 147.019531 102.390625 147.371094 101.605469 148.066406 101.335938 L 160.457031 96.574219 C 161.15625 96.308594 161.9375 96.65625 162.203125 97.355469 C 162.472656 98.054688 162.125 98.835938 161.425781 99.105469 L 149.035156 103.867188 C 148.875 103.929688 148.710938 103.957031 148.550781 103.957031 Z M 148.550781 103.957031 " fill-opacity="1" fill-rule="nonzero"/><path fill="#256199" d="M 157.121094 107.78125 C 156.578125 107.78125 156.066406 107.449219 155.859375 106.914062 L 151.105469 94.5 C 150.839844 93.800781 151.1875 93.019531 151.882812 92.75 C 152.582031 92.484375 153.363281 92.832031 153.632812 93.53125 L 158.386719 105.941406 C 158.65625 106.640625 158.304688 107.421875 157.609375 107.691406 C 157.449219 107.753906 157.285156 107.78125 157.121094 107.78125 Z M 157.121094 107.78125 " fill-opacity="1" fill-rule="nonzero"/><path fill="#0f5784" d="M 60.351562 112.503906 C 60.351562 112.503906 50.203125 123.113281 53.535156 136.667969 C 56.871094 150.222656 82.628906 158.445312 82.628906 158.445312 C 82.628906 158.445312 77.054688 145.242188 88.871094 130.277344 C 88.871094 130.277344 71.355469 121.738281 60.351562 112.503906 Z M 60.351562 112.503906 " fill-opacity="1" fill-rule="nonzero"/><path fill="#2492dd" d="M 66.804688 134.738281 C 67.394531 134.914062 67.996094 135.019531 68.597656 135.054688 C 70.15625 135.152344 71.71875 134.800781 73.085938 134.050781 C 73.617188 133.761719 74.117188 133.410156 74.578125 133 C 75.152344 132.496094 75.660156 131.90625 76.085938 131.230469 C 76.515625 130.554688 76.835938 129.839844 77.042969 129.109375 C 77.21875 128.515625 77.324219 127.914062 77.359375 127.308594 C 77.457031 125.75 77.105469 124.183594 76.355469 122.8125 C 76.066406 122.28125 75.714844 121.78125 75.304688 121.320312 C 74.804688 120.746094 74.214844 120.238281 73.539062 119.808594 C 72.867188 119.378906 72.152344 119.058594 71.421875 118.851562 C 70.832031 118.675781 70.230469 118.570312 69.625 118.535156 C 68.070312 118.4375 66.503906 118.789062 65.136719 119.542969 C 64.605469 119.832031 64.109375 120.183594 63.648438 120.59375 C 63.074219 121.09375 62.566406 121.6875 62.140625 122.363281 C 61.710938 123.035156 61.394531 123.75 61.183594 124.484375 C 61.007812 125.074219 60.90625 125.675781 60.867188 126.28125 C 60.769531 127.839844 61.117188 129.40625 61.867188 130.777344 C 62.15625 131.308594 62.507812 131.808594 62.917969 132.269531 C 63.417969 132.84375 64.011719 133.355469 64.683594 133.78125 C 65.359375 134.210938 66.070312 134.53125 66.804688 134.738281 Z M 67.644531 129.109375 C 66.375 128.296875 65.992188 126.605469 66.804688 125.328125 C 67.613281 124.050781 69.304688 123.671875 70.578125 124.480469 C 71.855469 125.292969 72.230469 126.984375 71.421875 128.261719 C 70.613281 129.542969 68.921875 129.917969 67.644531 129.109375 Z M 67.644531 129.109375 " fill-opacity="1" fill-rule="nonzero"/><path fill="#2492dd" d="M 75.347656 120.058594 C 75.347656 120.285156 75.304688 120.5 75.21875 120.707031 C 75.132812 120.914062 75.011719 121.097656 74.851562 121.257812 C 74.691406 121.414062 74.507812 121.539062 74.300781 121.625 C 74.09375 121.710938 73.878906 121.753906 73.65625 121.753906 C 73.429688 121.753906 73.214844 121.710938 73.007812 121.625 C 72.800781 121.539062 72.617188 121.414062 72.460938 121.257812 C 72.300781 121.097656 72.179688 120.914062 72.09375 120.707031 C 72.007812 120.5 71.964844 120.285156 71.964844 120.058594 C 71.964844 119.835938 72.007812 119.617188 72.09375 119.410156 C 72.179688 119.203125 72.300781 119.019531 72.460938 118.859375 C 72.617188 118.703125 72.800781 118.578125 73.007812 118.492188 C 73.214844 118.40625 73.429688 118.363281 73.65625 118.363281 C 73.878906 118.363281 74.09375 118.40625 74.300781 118.492188 C 74.507812 118.578125 74.691406 118.703125 74.851562 118.859375 C 75.011719 119.019531 75.132812 119.203125 75.21875 119.410156 C 75.304688 119.617188 75.347656 119.835938 75.347656 120.058594 Z M 75.347656 120.058594 " fill-opacity="1" fill-rule="nonzero"/><path fill="#2492dd" d="M 64.128906 122.3125 C 64.128906 122.539062 64.085938 122.753906 64 122.960938 C 63.914062 123.167969 63.792969 123.351562 63.632812 123.511719 C 63.476562 123.671875 63.292969 123.792969 63.085938 123.878906 C 62.878906 123.964844 62.660156 124.007812 62.4375 124.007812 C 62.214844 124.007812 61.996094 123.964844 61.789062 123.878906 C 61.582031 123.792969 61.398438 123.671875 61.242188 123.511719 C 61.082031 123.351562 60.960938 123.167969 60.875 122.960938 C 60.789062 122.753906 60.746094 122.539062 60.746094 122.3125 C 60.746094 122.089844 60.789062 121.871094 60.875 121.664062 C 60.960938 121.457031 61.082031 121.273438 61.242188 121.113281 C 61.398438 120.957031 61.582031 120.832031 61.789062 120.746094 C 61.996094 120.660156 62.214844 120.617188 62.4375 120.617188 C 62.660156 120.617188 62.878906 120.660156 63.085938 120.746094 C 63.292969 120.832031 63.476562 120.957031 63.632812 121.113281 C 63.792969 121.273438 63.914062 121.457031 64 121.664062 C 64.085938 121.871094 64.128906 122.089844 64.128906 122.3125 Z M 64.128906 122.3125 " fill-opacity="1" fill-rule="nonzero"/><path fill="#2492dd" d="M 69.273438 118.859375 C 69.273438 119.082031 69.230469 119.300781 69.144531 119.507812 C 69.058594 119.714844 68.933594 119.898438 68.777344 120.058594 C 68.617188 120.214844 68.433594 120.339844 68.226562 120.425781 C 68.019531 120.511719 67.804688 120.554688 67.582031 120.554688 C 67.355469 120.554688 67.140625 120.511719 66.933594 120.425781 C 66.726562 120.339844 66.542969 120.214844 66.382812 120.058594 C 66.226562 119.898438 66.101562 119.714844 66.015625 119.507812 C 65.929688 119.300781 65.890625 119.082031 65.890625 118.859375 C 65.890625 118.632812 65.929688 118.417969 66.015625 118.210938 C 66.101562 118.003906 66.226562 117.820312 66.382812 117.660156 C 66.542969 117.5 66.726562 117.378906 66.933594 117.292969 C 67.140625 117.207031 67.355469 117.164062 67.582031 117.164062 C 67.804688 117.164062 68.019531 117.207031 68.226562 117.292969 C 68.433594 117.378906 68.617188 117.5 68.777344 117.660156 C 68.933594 117.820312 69.058594 118.003906 69.144531 118.210938 C 69.230469 118.417969 69.273438 118.632812 69.273438 118.859375 Z M 69.273438 118.859375 " fill-opacity="1" fill-rule="nonzero"/><path fill="#2492dd" d="M 62.929688 128.398438 C 62.929688 128.621094 62.890625 128.839844 62.804688 129.046875 C 62.71875 129.253906 62.59375 129.4375 62.4375 129.597656 C 62.277344 129.753906 62.09375 129.878906 61.886719 129.964844 C 61.679688 130.050781 61.464844 130.09375 61.238281 130.09375 C 61.015625 130.09375 60.800781 130.050781 60.59375 129.964844 C 60.386719 129.878906 60.203125 129.753906 60.042969 129.597656 C 59.886719 129.4375 59.761719 129.253906 59.675781 129.046875 C 59.589844 128.839844 59.546875 128.621094 59.546875 128.398438 C 59.546875 128.171875 59.589844 127.957031 59.675781 127.75 C 59.761719 127.542969 59.886719 127.359375 60.042969 127.199219 C 60.203125 127.042969 60.386719 126.917969 60.59375 126.832031 C 60.800781 126.746094 61.015625 126.703125 61.238281 126.703125 C 61.464844 126.703125 61.679688 126.746094 61.886719 126.832031 C 62.09375 126.917969 62.277344 127.042969 62.4375 127.199219 C 62.59375 127.359375 62.71875 127.542969 62.804688 127.75 C 62.890625 127.957031 62.929688 128.171875 62.929688 128.398438 Z M 62.929688 128.398438 " fill-opacity="1" fill-rule="nonzero"/><path fill="#2492dd" d="M 72.457031 134.75 C 72.457031 134.972656 72.414062 135.191406 72.328125 135.398438 C 72.242188 135.605469 72.117188 135.789062 71.960938 135.949219 C 71.800781 136.105469 71.617188 136.230469 71.410156 136.316406 C 71.203125 136.402344 70.988281 136.445312 70.761719 136.445312 C 70.539062 136.445312 70.324219 136.402344 70.117188 136.316406 C 69.910156 136.230469 69.726562 136.105469 69.566406 135.949219 C 69.410156 135.789062 69.285156 135.605469 69.199219 135.398438 C 69.113281 135.191406 69.070312 134.972656 69.070312 134.75 C 69.070312 134.523438 69.113281 134.308594 69.199219 134.101562 C 69.285156 133.894531 69.410156 133.710938 69.566406 133.550781 C 69.726562 133.390625 69.910156 133.269531 70.117188 133.183594 C 70.324219 133.097656 70.539062 133.054688 70.761719 133.054688 C 70.988281 133.054688 71.203125 133.097656 71.410156 133.183594 C 71.617188 133.269531 71.800781 133.390625 71.960938 133.550781 C 72.117188 133.710938 72.242188 133.894531 72.328125 134.101562 C 72.414062 134.308594 72.457031 134.523438 72.457031 134.75 Z M 72.457031 134.75 " fill-opacity="1" fill-rule="nonzero"/><path fill="#2492dd" d="M 66.378906 133.550781 C 66.378906 133.773438 66.335938 133.992188 66.25 134.199219 C 66.164062 134.40625 66.042969 134.589844 65.886719 134.746094 C 65.726562 134.90625 65.542969 135.027344 65.335938 135.113281 C 65.128906 135.199219 64.914062 135.242188 64.6875 135.242188 C 64.464844 135.242188 64.25 135.199219 64.042969 135.113281 C 63.835938 135.027344 63.652344 134.90625 63.492188 134.746094 C 63.332031 134.589844 63.210938 134.40625 63.125 134.199219 C 63.039062 133.992188 62.996094 133.773438 62.996094 133.550781 C 62.996094 133.324219 63.039062 133.109375 63.125 132.902344 C 63.210938 132.695312 63.332031 132.511719 63.492188 132.351562 C 63.652344 132.191406 63.835938 132.070312 64.042969 131.984375 C 64.25 131.898438 64.464844 131.855469 64.6875 131.855469 C 64.914062 131.855469 65.128906 131.898438 65.335938 131.984375 C 65.542969 132.070312 65.726562 132.191406 65.886719 132.351562 C 66.042969 132.511719 66.164062 132.695312 66.25 132.902344 C 66.335938 133.109375 66.378906 133.324219 66.378906 133.550781 Z M 66.378906 133.550781 " fill-opacity="1" fill-rule="nonzero"/><path fill="#2492dd" d="M 77.597656 131.292969 C 77.597656 131.519531 77.554688 131.734375 77.46875 131.941406 C 77.382812 132.152344 77.261719 132.335938 77.101562 132.492188 C 76.945312 132.652344 76.761719 132.773438 76.554688 132.859375 C 76.347656 132.945312 76.128906 132.988281 75.90625 132.988281 C 75.683594 132.988281 75.464844 132.945312 75.257812 132.859375 C 75.050781 132.773438 74.867188 132.652344 74.710938 132.492188 C 74.550781 132.335938 74.429688 132.152344 74.34375 131.941406 C 74.257812 131.734375 74.214844 131.519531 74.214844 131.292969 C 74.214844 131.070312 74.257812 130.855469 74.34375 130.644531 C 74.429688 130.4375 74.550781 130.253906 74.710938 130.097656 C 74.867188 129.9375 75.050781 129.816406 75.257812 129.730469 C 75.464844 129.644531 75.683594 129.601562 75.90625 129.601562 C 76.128906 129.601562 76.347656 129.644531 76.554688 129.730469 C 76.761719 129.816406 76.945312 129.9375 77.101562 130.097656 C 77.261719 130.253906 77.382812 130.4375 77.46875 130.644531 C 77.554688 130.855469 77.597656 131.070312 77.597656 131.292969 Z M 77.597656 131.292969 " fill-opacity="1" fill-rule="nonzero"/><path fill="#2492dd" d="M 78.796875 125.210938 C 78.796875 125.433594 78.753906 125.652344 78.667969 125.859375 C 78.582031 126.066406 78.457031 126.25 78.300781 126.40625 C 78.140625 126.566406 77.957031 126.6875 77.75 126.773438 C 77.542969 126.859375 77.328125 126.902344 77.105469 126.902344 C 76.878906 126.902344 76.664062 126.859375 76.457031 126.773438 C 76.25 126.6875 76.066406 126.566406 75.90625 126.40625 C 75.75 126.25 75.625 126.066406 75.539062 125.859375 C 75.457031 125.652344 75.414062 125.433594 75.414062 125.210938 C 75.414062 124.984375 75.457031 124.769531 75.539062 124.5625 C 75.625 124.355469 75.75 124.171875 75.90625 124.011719 C 76.066406 123.851562 76.25 123.730469 76.457031 123.644531 C 76.664062 123.558594 76.878906 123.515625 77.105469 123.515625 C 77.328125 123.515625 77.542969 123.558594 77.75 123.644531 C 77.957031 123.730469 78.140625 123.851562 78.300781 124.011719 C 78.457031 124.171875 78.582031 124.355469 78.667969 124.5625 C 78.753906 124.769531 78.796875 124.984375 78.796875 125.210938 Z M 78.796875 125.210938 " fill-opacity="1" fill-rule="nonzero"/><path fill="#2492dd" d="M 65.300781 148.082031 C 65.695312 148.25 66.101562 148.371094 66.519531 148.445312 C 67.589844 148.636719 68.699219 148.519531 69.707031 148.109375 C 70.097656 147.949219 70.472656 147.746094 70.824219 147.5 C 71.261719 147.199219 71.660156 146.828125 72.011719 146.394531 C 72.363281 145.960938 72.640625 145.492188 72.84375 145 C 73.011719 144.605469 73.132812 144.195312 73.207031 143.78125 C 73.398438 142.707031 73.28125 141.59375 72.871094 140.585938 C 72.714844 140.195312 72.511719 139.820312 72.261719 139.46875 C 71.960938 139.027344 71.59375 138.628906 71.160156 138.277344 C 70.726562 137.925781 70.261719 137.648438 69.769531 137.445312 C 69.375 137.277344 68.964844 137.15625 68.550781 137.082031 C 67.480469 136.890625 66.367188 137.007812 65.359375 137.417969 C 64.96875 137.578125 64.597656 137.78125 64.246094 138.027344 C 63.808594 138.328125 63.410156 138.699219 63.058594 139.132812 C 62.707031 139.566406 62.429688 140.035156 62.226562 140.523438 C 62.058594 140.921875 61.9375 141.328125 61.863281 141.742188 C 61.671875 142.816406 61.789062 143.929688 62.195312 144.941406 C 62.355469 145.332031 62.558594 145.707031 62.804688 146.058594 C 63.105469 146.496094 63.476562 146.898438 63.910156 147.246094 C 64.339844 147.597656 64.808594 147.878906 65.300781 148.082031 Z M 66.335938 144.246094 C 65.515625 143.585938 65.390625 142.378906 66.050781 141.558594 C 66.714844 140.738281 67.917969 140.613281 68.734375 141.277344 C 69.554688 141.941406 69.679688 143.144531 69.015625 143.964844 C 68.355469 144.785156 67.152344 144.910156 66.335938 144.246094 Z M 66.335938 144.246094 " fill-opacity="1" fill-rule="nonzero"/><path fill="#2492dd" d="M 72.402344 138.460938 C 72.402344 138.617188 72.371094 138.769531 72.3125 138.914062 C 72.25 139.058594 72.164062 139.183594 72.054688 139.296875 C 71.945312 139.40625 71.816406 139.492188 71.671875 139.550781 C 71.527344 139.613281 71.375 139.640625 71.21875 139.640625 C 71.0625 139.640625 70.914062 139.613281 70.769531 139.550781 C 70.625 139.492188 70.496094 139.40625 70.386719 139.296875 C 70.277344 139.183594 70.191406 139.058594 70.128906 138.914062 C 70.070312 138.769531 70.039062 138.617188 70.039062 138.460938 C 70.039062 138.304688 70.070312 138.152344 70.128906 138.007812 C 70.191406 137.863281 70.273438 137.734375 70.386719 137.625 C 70.496094 137.515625 70.625 137.429688 70.769531 137.367188 C 70.914062 137.308594 71.0625 137.277344 71.21875 137.277344 C 71.375 137.277344 71.527344 137.308594 71.671875 137.367188 C 71.816406 137.429688 71.945312 137.515625 72.054688 137.625 C 72.164062 137.734375 72.25 137.863281 72.3125 138.007812 C 72.371094 138.152344 72.402344 138.304688 72.402344 138.460938 Z M 72.402344 138.460938 " fill-opacity="1" fill-rule="nonzero"/><path fill="#2492dd" d="M 64.449219 139.121094 C 64.449219 139.277344 64.417969 139.429688 64.359375 139.574219 C 64.300781 139.71875 64.214844 139.847656 64.105469 139.957031 C 63.992188 140.070312 63.867188 140.152344 63.722656 140.214844 C 63.578125 140.273438 63.425781 140.304688 63.269531 140.304688 C 63.113281 140.304688 62.960938 140.273438 62.816406 140.214844 C 62.671875 140.152344 62.546875 140.070312 62.433594 139.957031 C 62.324219 139.847656 62.238281 139.71875 62.179688 139.574219 C 62.121094 139.429688 62.089844 139.277344 62.089844 139.121094 C 62.089844 138.964844 62.121094 138.816406 62.179688 138.667969 C 62.238281 138.523438 62.324219 138.398438 62.433594 138.285156 C 62.546875 138.175781 62.671875 138.089844 62.816406 138.03125 C 62.960938 137.96875 63.113281 137.941406 63.269531 137.941406 C 63.425781 137.941406 63.578125 137.96875 63.722656 138.03125 C 63.867188 138.089844 63.992188 138.175781 64.105469 138.285156 C 64.214844 138.398438 64.300781 138.523438 64.359375 138.667969 C 64.417969 138.816406 64.449219 138.964844 64.449219 139.121094 Z M 64.449219 139.121094 " fill-opacity="1" fill-rule="nonzero"/><path fill="#2492dd" d="M 68.289062 137.140625 C 68.289062 137.296875 68.257812 137.449219 68.199219 137.59375 C 68.136719 137.738281 68.054688 137.867188 67.941406 137.976562 C 67.832031 138.089844 67.703125 138.175781 67.558594 138.234375 C 67.414062 138.292969 67.265625 138.324219 67.109375 138.324219 C 66.953125 138.324219 66.800781 138.292969 66.65625 138.234375 C 66.511719 138.175781 66.382812 138.089844 66.273438 137.976562 C 66.164062 137.867188 66.078125 137.738281 66.019531 137.59375 C 65.957031 137.449219 65.929688 137.296875 65.929688 137.140625 C 65.929688 136.984375 65.957031 136.835938 66.019531 136.691406 C 66.078125 136.542969 66.164062 136.417969 66.273438 136.304688 C 66.382812 136.195312 66.511719 136.109375 66.65625 136.050781 C 66.800781 135.988281 66.953125 135.960938 67.109375 135.960938 C 67.265625 135.960938 67.414062 135.988281 67.558594 136.050781 C 67.703125 136.109375 67.832031 136.195312 67.941406 136.304688 C 68.054688 136.417969 68.136719 136.542969 68.199219 136.691406 C 68.257812 136.835938 68.289062 136.984375 68.289062 137.140625 Z M 68.289062 137.140625 " fill-opacity="1" fill-rule="nonzero"/><path fill="#2492dd" d="M 63.132812 143.242188 C 63.132812 143.398438 63.101562 143.550781 63.042969 143.695312 C 62.984375 143.839844 62.898438 143.964844 62.785156 144.078125 C 62.675781 144.1875 62.546875 144.273438 62.402344 144.332031 C 62.257812 144.394531 62.109375 144.421875 61.953125 144.421875 C 61.796875 144.421875 61.644531 144.394531 61.5 144.332031 C 61.355469 144.273438 61.230469 144.1875 61.117188 144.078125 C 61.007812 143.964844 60.921875 143.839844 60.863281 143.695312 C 60.800781 143.550781 60.773438 143.398438 60.773438 143.242188 C 60.773438 143.085938 60.800781 142.933594 60.863281 142.789062 C 60.921875 142.644531 61.007812 142.515625 61.117188 142.40625 C 61.230469 142.296875 61.355469 142.210938 61.5 142.148438 C 61.644531 142.089844 61.796875 142.058594 61.953125 142.058594 C 62.109375 142.058594 62.257812 142.089844 62.402344 142.148438 C 62.546875 142.210938 62.675781 142.296875 62.785156 142.40625 C 62.898438 142.515625 62.984375 142.644531 63.042969 142.789062 C 63.101562 142.933594 63.132812 143.085938 63.132812 143.242188 Z M 63.132812 143.242188 " fill-opacity="1" fill-rule="nonzero"/><path fill="#2492dd" d="M 69.222656 148.40625 C 69.222656 148.5625 69.191406 148.714844 69.132812 148.859375 C 69.074219 149.003906 68.988281 149.128906 68.875 149.242188 C 68.765625 149.351562 68.636719 149.4375 68.492188 149.496094 C 68.347656 149.558594 68.199219 149.585938 68.042969 149.585938 C 67.886719 149.585938 67.734375 149.558594 67.589844 149.496094 C 67.445312 149.4375 67.320312 149.351562 67.207031 149.242188 C 67.097656 149.128906 67.011719 149.003906 66.953125 148.859375 C 66.890625 148.714844 66.863281 148.5625 66.863281 148.40625 C 66.863281 148.25 66.890625 148.097656 66.953125 147.953125 C 67.011719 147.808594 67.097656 147.679688 67.207031 147.570312 C 67.320312 147.460938 67.445312 147.375 67.589844 147.3125 C 67.734375 147.253906 67.886719 147.222656 68.042969 147.222656 C 68.199219 147.222656 68.347656 147.253906 68.492188 147.3125 C 68.636719 147.375 68.765625 147.460938 68.875 147.570312 C 68.988281 147.679688 69.074219 147.808594 69.132812 147.953125 C 69.191406 148.097656 69.222656 148.25 69.222656 148.40625 Z M 69.222656 148.40625 " fill-opacity="1" fill-rule="nonzero"/><path fill="#2492dd" d="M 65.109375 147.085938 C 65.109375 147.242188 65.078125 147.394531 65.019531 147.539062 C 64.960938 147.683594 64.875 147.8125 64.765625 147.921875 C 64.652344 148.035156 64.527344 148.117188 64.382812 148.179688 C 64.238281 148.238281 64.085938 148.269531 63.929688 148.269531 C 63.773438 148.269531 63.621094 148.238281 63.476562 148.179688 C 63.332031 148.117188 63.207031 148.035156 63.09375 147.921875 C 62.984375 147.8125 62.898438 147.683594 62.839844 147.539062 C 62.78125 147.394531 62.75 147.242188 62.75 147.085938 C 62.75 146.929688 62.78125 146.777344 62.839844 146.632812 C 62.898438 146.488281 62.984375 146.363281 63.09375 146.25 C 63.207031 146.140625 63.332031 146.054688 63.476562 145.996094 C 63.621094 145.933594 63.773438 145.90625 63.929688 145.90625 C 64.085938 145.90625 64.238281 145.933594 64.382812 145.996094 C 64.527344 146.054688 64.652344 146.140625 64.765625 146.25 C 64.875 146.363281 64.960938 146.488281 65.019531 146.632812 C 65.078125 146.777344 65.109375 146.929688 65.109375 147.085938 Z M 65.109375 147.085938 " fill-opacity="1" fill-rule="nonzero"/><path fill="#2492dd" d="M 73.0625 146.425781 C 73.0625 146.582031 73.03125 146.734375 72.972656 146.878906 C 72.910156 147.023438 72.824219 147.148438 72.714844 147.261719 C 72.605469 147.371094 72.476562 147.457031 72.332031 147.515625 C 72.1875 147.578125 72.039062 147.605469 71.882812 147.605469 C 71.722656 147.605469 71.574219 147.578125 71.429688 147.515625 C 71.285156 147.457031 71.15625 147.371094 71.046875 147.261719 C 70.9375 147.148438 70.851562 147.023438 70.789062 146.878906 C 70.730469 146.734375 70.699219 146.582031 70.699219 146.425781 C 70.699219 146.269531 70.730469 146.117188 70.789062 145.972656 C 70.851562 145.828125 70.9375 145.699219 71.046875 145.589844 C 71.15625 145.476562 71.285156 145.394531 71.429688 145.332031 C 71.574219 145.273438 71.722656 145.242188 71.882812 145.242188 C 72.039062 145.242188 72.1875 145.273438 72.332031 145.332031 C 72.476562 145.394531 72.605469 145.476562 72.714844 145.589844 C 72.824219 145.699219 72.910156 145.828125 72.972656 145.972656 C 73.03125 146.117188 73.0625 146.269531 73.0625 146.425781 Z M 73.0625 146.425781 " fill-opacity="1" fill-rule="nonzero"/><path fill="#2492dd" d="M 74.378906 142.304688 C 74.378906 142.460938 74.347656 142.613281 74.289062 142.757812 C 74.226562 142.902344 74.144531 143.03125 74.03125 143.140625 C 73.921875 143.253906 73.792969 143.339844 73.648438 143.398438 C 73.503906 143.457031 73.355469 143.488281 73.199219 143.488281 C 73.042969 143.488281 72.890625 143.457031 72.746094 143.398438 C 72.601562 143.339844 72.472656 143.253906 72.363281 143.140625 C 72.253906 143.03125 72.167969 142.902344 72.109375 142.757812 C 72.046875 142.613281 72.019531 142.460938 72.019531 142.304688 C 72.019531 142.148438 72.046875 142 72.109375 141.855469 C 72.167969 141.707031 72.253906 141.582031 72.363281 141.46875 C 72.472656 141.359375 72.601562 141.273438 72.746094 141.214844 C 72.890625 141.152344 73.042969 141.125 73.199219 141.125 C 73.355469 141.125 73.503906 141.152344 73.648438 141.214844 C 73.792969 141.273438 73.921875 141.359375 74.03125 141.46875 C 74.144531 141.582031 74.226562 141.707031 74.289062 141.855469 C 74.347656 142 74.378906 142.148438 74.378906 142.304688 Z M 74.378906 142.304688 " fill-opacity="1" fill-rule="nonzero"/><path fill="#1b72c1" d="M 27.667969 160.046875 C 27.667969 160.046875 27.664062 160.046875 27.660156 160.046875 C 27.164062 160.042969 26.761719 159.632812 26.769531 159.132812 C 26.855469 150.726562 30.933594 143.097656 37.949219 138.199219 C 43.820312 134.101562 50.75 132.734375 56.046875 134.628906 C 56.515625 134.796875 56.761719 135.316406 56.59375 135.785156 C 56.425781 136.253906 55.902344 136.496094 55.4375 136.332031 C 50.6875 134.628906 44.378906 135.914062 38.980469 139.683594 C 32.449219 144.242188 28.65625 151.339844 28.574219 159.152344 C 28.566406 159.648438 28.164062 160.046875 27.667969 160.046875 Z M 27.667969 160.046875 " fill-opacity="1" fill-rule="nonzero"/><path fill="#1b72c1" d="M 36.367188 165.863281 C 37.742188 165.410156 38.328125 163.835938 37.582031 162.417969 C 35.109375 157.703125 31.898438 154.65625 27.152344 156.226562 C 22.441406 157.78125 21.625 162.152344 22.4375 167.417969 C 22.679688 169.003906 24.085938 169.917969 25.460938 169.464844 Z M 36.367188 165.863281 " fill-opacity="1" fill-rule="nonzero"/><path fill="#1b72c1" d="M 29.117188 173.917969 C 28.605469 174.085938 28.054688 173.804688 27.886719 173.292969 L 25.953125 167.425781 L 27.804688 166.8125 L 29.738281 172.683594 C 29.90625 173.195312 29.628906 173.746094 29.117188 173.917969 Z M 29.117188 173.917969 " fill-opacity="1" fill-rule="nonzero"/><path fill="#1b72c1" d="M 36.152344 171.59375 C 35.640625 171.761719 35.089844 171.484375 34.921875 170.972656 L 32.992188 165.101562 L 34.84375 164.492188 L 36.773438 170.359375 C 36.941406 170.871094 36.664062 171.425781 36.152344 171.59375 Z M 36.152344 171.59375 " fill-opacity="1" fill-rule="nonzero"/><path fill="#2492dd" d="M 56.089844 93.609375 C 53.476562 93.40625 50.960938 92.875 48.585938 92.171875 C 40.0625 89.644531 33.28125 84.808594 30.171875 84.265625 C 30.0625 84.246094 29.953125 84.238281 29.851562 84.230469 C 29.789062 84.21875 29.722656 84.214844 29.65625 84.222656 C 29.582031 84.21875 29.519531 84.21875 29.453125 84.226562 C 29.449219 84.234375 29.441406 84.234375 29.441406 84.242188 C 29.34375 84.253906 29.257812 84.273438 29.175781 84.308594 C 26.242188 85.394531 25.335938 90.023438 34.183594 100.890625 C 36 103.128906 37.863281 105.035156 39.671875 106.65625 C 44.148438 110.671875 51.316406 109.410156 53.902344 103.976562 C 55.183594 101.28125 56.121094 97.851562 56.089844 93.609375 Z M 56.089844 93.609375 " fill-opacity="1" fill-rule="nonzero"/><path fill="#70caf2" d="M 56.0625 93.769531 L 56.089844 93.609375 C 53.476562 93.40625 50.960938 92.875 48.585938 92.171875 C 40.0625 89.644531 33.28125 84.808594 30.171875 84.265625 C 30.0625 84.246094 29.953125 84.238281 29.851562 84.230469 C 29.789062 84.21875 29.722656 84.214844 29.65625 84.222656 C 29.582031 84.21875 29.519531 84.21875 29.453125 84.226562 C 29.449219 84.234375 29.441406 84.234375 29.441406 84.242188 C 27.773438 86.433594 33.714844 93.105469 40.089844 96.339844 C 45.308594 98.992188 54.980469 99.992188 56.0625 93.769531 Z M 56.0625 93.769531 " fill-opacity="1" fill-rule="nonzero"/><g clip-path="url(#30600a0574)"><path fill="#0f5784" d="M 36.914062 120.925781 L 40.703125 75.199219 C 47.730469 73.898438 53.398438 68.140625 54.265625 60.660156 C 54.8125 55.929688 53.332031 51.4375 50.515625 48.042969 L 47.148438 47.652344 L 45.824219 59.082031 L 37.289062 63.195312 L 29.632812 57.203125 L 30.957031 45.773438 L 27.585938 45.382812 C 24.070312 48.042969 21.605469 52.078125 21.058594 56.804688 C 20.195312 64.289062 24.398438 71.191406 30.945312 74.066406 L 24.195312 119.449219 C 23.640625 123.046875 26.179688 126.390625 29.789062 126.808594 C 33.402344 127.226562 36.636719 124.554688 36.914062 120.925781 Z M 30.484375 122.316406 C 29.328125 122.179688 28.496094 121.132812 28.628906 119.96875 C 28.765625 118.808594 29.8125 117.976562 30.972656 118.109375 C 32.132812 118.246094 32.960938 119.296875 32.828125 120.457031 C 32.695312 121.617188 31.644531 122.449219 30.484375 122.316406 Z M 30.484375 122.316406 " fill-opacity="1" fill-rule="nonzero"/></g><path fill="#2492dd" d="M 29.644531 82.933594 C 29.644531 82.933594 33.753906 87.207031 32.578125 91.152344 C 31.730469 94.007812 29.441406 94.535156 27.949219 94.351562 C 26.230469 92.710938 24.253906 86.65625 29.644531 82.933594 Z M 29.644531 82.933594 " fill-opacity="1" fill-rule="nonzero"/></svg>